<svg xmlns="http://www.w3.org/2000/svg" viewBox="0 0 100 100" width="100" height="100">
  <style>
    .book { fill: #003087; }
    .page { fill: #ffffff; }
    .text { fill: #ce1126; }
  </style>
  <circle cx="50" cy="50" r="45" fill="#003087" fill-opacity="0.1" />
  <!-- Open book -->
  <path class="book" d="M20 30 L20 70 L50 60 L80 70 L80 30 L50 40 Z" />
  <!-- Book pages -->
  <path class="page" d="M22 32 L22 68 L49 58 L49 42 Z" />
  <path class="page" d="M78 32 L78 68 L51 58 L51 42 Z" />
  <!-- Text lines -->
  <line x1="28" y1="45" x2="43" y2="45" stroke="#ce1126" stroke-width="1.5" />
  <line x1="28" y1="50" x2="43" y2="50" stroke="#ce1126" stroke-width="1.5" />
  <line x1="28" y1="55" x2="40" y2="55" stroke="#ce1126" stroke-width="1.5" />
  <line x1="57" y1="45" x2="72" y2="45" stroke="#ce1126" stroke-width="1.5" />
  <line x1="57" y1="50" x2="72" y2="50" stroke="#ce1126" stroke-width="1.5" />
  <line x1="57" y1="55" x2="69" y2="55" stroke="#ce1126" stroke-width="1.5" />
  <!-- Bookmark -->
  <path class="text" d="M50 35 L55 30 L55 45 L50 40 L45 45 L45 30 Z" />
</svg>