<svg xmlns="http://www.w3.org/2000/svg" viewBox="0 0 100 100" width="100" height="100">
  <style>
    .math-symbol { fill: #003087; }
    .accent { fill: #ce1126; }
  </style>
  <circle cx="50" cy="50" r="45" fill="#003087" fill-opacity="0.1" />
  <!-- Plus symbol -->
  <rect class="math-symbol" x="35" y="47.5" width="30" height="5" />
  <rect class="math-symbol" x="47.5" y="35" width="5" height="30" />
  <!-- Multiplication symbol -->
  <rect class="accent" x="25" y="25" width="15" height="5" transform="rotate(45, 25, 25)" />
  <rect class="accent" x="25" y="25" width="15" height="5" transform="rotate(-45, 25, 25)" />
  <!-- Division symbol -->
  <rect class="math-symbol" x="65" y="25" width="15" height="5" />
  <circle class="math-symbol" cx="72.5" cy="20" r="2.5" />
  <circle class="math-symbol" cx="72.5" cy="35" r="2.5" />
  <!-- Equals symbol -->
  <rect class="accent" x="65" y="65" width="15" height="3" />
  <rect class="accent" x="65" y="72" width="15" height="3" />
  <!-- Pi symbol -->
  <path class="math-symbol" d="M20 65 L35 65 L35 70 L32 70 L30 80 L25 80 L27 70 L23 70 L25 80 L20 80 Z" />
</svg>